<svg width="480" height="480" viewBox="0 0 480 480" fill="none" xmlns="http://www.w3.org/2000/svg">
<path d="M465.123 290.364C465.123 397.357 364.432 456.476 240.222 456.476C116.013 456.476 15.321 397.357 15.321 290.364C15.321 183.371 116.013 96.6357 240.222 96.6357C364.432 96.6357 465.123 183.371 465.123 290.364Z" fill="#B4B4B4"/>
<path d="M30.1677 30.6908C70.4461 2.01576 149.048 72.4227 183.314 111.211L38.7785 214.111C19.1256 164.919 -10.1101 59.3667 30.1677 30.6908Z" fill="#B4B4B4"/>
<path d="M449.832 30.6908C409.554 2.01576 330.952 72.4227 296.686 111.211L441.222 214.111C460.874 164.919 490.11 59.3667 449.832 30.6908Z" fill="#B4B4B4"/>
<path d="M235.439 341.953C316.278 342.273 392.353 372.835 421.099 388.495C421.507 388.718 421.738 389.134 421.738 389.599V395.047C380.815 435.189 314.753 456.476 240.222 456.476C160.708 456.476 90.8319 432.248 50.8393 386.743C81.7886 370.668 155.281 342.262 233.202 341.953C233.682 341.951 234.103 342.217 234.321 342.609C234.539 342.217 234.958 341.951 235.439 341.953Z" fill="#F6F2DE"/>
<path d="M33.4777 362.321C57.0695 342.214 89.3114 338.92 110.847 356.187C132.847 373.825 136.331 407.034 120.715 434.804C82.2306 418.93 51.5903 394.543 33.4777 362.321Z" fill="#DCAFB8"/>
<path d="M446.965 362.319C423.373 342.213 391.132 338.919 369.596 356.185C347.597 373.823 344.112 407.032 359.727 434.802C398.212 418.928 428.852 394.541 446.965 362.319Z" fill="#DCAFB8"/>
<ellipse cx="125.698" cy="322.492" rx="21.0547" ry="21.0546" fill="#202020"/>
<ellipse cx="354.745" cy="322.492" rx="21.0547" ry="21.0546" fill="#202020"/>
<path d="M253.376 351.952C259.972 351.952 260.319 356.855 260.319 359.306C260.319 363.197 250.092 377.121 242.276 377.915C241.755 378.071 240.999 378.108 239.902 378.067C238.805 378.108 238.049 378.071 237.528 377.915C229.712 377.119 219.486 363.197 219.486 359.306C219.486 356.855 219.833 351.952 226.429 351.952H253.376Z" fill="#202020"/>
<ellipse cx="169.141" cy="338.453" rx="4.46614" ry="5.10414" fill="#202020"/>
<ellipse cx="20.0976" cy="11.4843" rx="20.0976" ry="11.4843" transform="matrix(0.961262 -0.275636 0.275639 0.961261 103.021 246.308)" fill="#F6F2DE"/>
<ellipse cx="20.0976" cy="11.4843" rx="20.0976" ry="11.4843" transform="matrix(-0.961262 -0.275636 -0.275639 0.961261 377.675 246.308)" fill="#F6F2DE"/>
<path d="M30.1676 30.6924C63.0332 7.29478 121.413 49.8668 160.404 87.4004C96.824 113.401 49.5486 160.134 28.8981 186.606C11.5297 133.004 -3.64239 54.7635 30.1676 30.6924Z" fill="#818181"/>
<path d="M449.832 30.6924C416.967 7.29479 358.588 49.866 319.597 87.3994C383.176 113.4 430.451 160.13 451.103 186.604C468.471 133.001 483.642 54.7631 449.832 30.6924Z" fill="#818181"/>
</svg>
